/* XPM */
static char * copy_xpm[] = {
"16 16 5 1",
" 	c None",
".	c #000080",
"+	c #808080",
"@	c #FFFFFF",
"#	c #000000",
"                ",
" ......         ",
"+.@@@@..        ",
"+.@@@@.@#       ",
"+.@##@.......   ",
"+.@@@@+.@@@@.#  ",
"+.@####.@@@@.@# ",
"+.@@@@+.@##@....",
"+.@####.@@@@@@@.",
"+.@@@@+.@#####@.",
"+.......@@@@@@@.",
"+++++++.@#####@.",
"      +.@@@@@@@.",
"      +.........",
"      ++++++++  ",
"                "};
