/* XPM */
static char * paste_xpm[] = {
"16 16 8 1",
" 	c None",
".	c #000000",
"+	c #FFFF00",
"@	c #808000",
"#	c #C0C0C0",
"$	c #808080",
"%	c #FFFFFF",
"&	c #000080",
"                ",
"      ....      ",
"  .....++.....  ",
" .@#@.+..+.#@#. ",
"$.#$.%%%%%%.$@. ",
"$.@$........$#. ",
"$.#@#@##&&&&&&. ",
"$.@#@#@$&%%%%&& ",
"$.#@#@#$&%%%%&%&",
"$.@#@#@$&%..%&&&",
"$.#@#@#$&%%%%%%&",
"$.@#@#@$&%....%&",
" $......&%%%%%%&",
"  $$$$$$&&&&&&&&",
"       $$$$$$$  ",
"                "};
