/* XPM */
static char * refresh_xpm[] = {
"14 14 2 1",
" 	c None",
".	c #000080",
"              ",
"    ......    ",
"   ........   ",
"  ...    ..   ",
" ...      ..  ",
".....         ",
" ...       .  ",
"  .       ... ",
"         .....",
"  ..      ... ",
"  ..     ...  ",
"   ........   ",
"    ......    ",
"              "};
