/* XPM */
static char * about_xpm[] = {
"14 14 53 1",
" 	c None",
".	c #FFFFFF",
"+	c #FFFBF7",
"@	c #EFEBE7",
"#	c #F7F3F7",
"$	c #E7E3DF",
"%	c #494941",
"&	c #F7E7D7",
"*	c #E7CB96",
"=	c #DFAE61",
"-	c #E7B651",
";	c #E7CBA6",
">	c #C7C3BE",
",	c #515149",
"'	c #969696",
")	c #D7CBC7",
"!	c #E7BA49",
"~	c #DFAE41",
"{	c #C78638",
"]	c #C7A68E",
"^	c #DFDBD7",
"/	c #C77D38",
"(	c #A66551",
"_	c #D7D3CF",
":	c #D7A641",
"<	c #AE5D30",
"[	c #9E5D49",
"}	c #DFCFCF",
"|	c #000000",
"1	c #F7EFEF",
"2	c #C79249",
"3	c #B67130",
"4	c #A64D28",
"5	c #963828",
"6	c #A68679",
"7	c #AEA6A6",
"8	c #595951",
"9	c #302C28",
"0	c #E7DBCF",
"a	c #BE9271",
"b	c #9E5541",
"c	c #AE8E8E",
"d	c #A69E96",
"e	c #181810",
"f	c #BEB6B6",
"g	c #797569",
"h	c #CFCBCF",
"i	c #383830",
"j	c #282820",
"k	c #8E8686",
"l	c #BEBAB6",
"m	c #413C38",
"n	c #080C08",
"              ",
"      ... +@  ",
"  ++.++#.++$% ",
"  $+&*=-=;@>, ",
"  ')--!-~{]$^ ",
"@+.*!!!-~/(_.+",
" @.;:~!~{<[}@)",
" |^12//3456789",
"  1+0abb[c_de ",
"  +.@fgf^@+hi ",
"  _^'jek1+1li ",
"  %iee  g'km9 ",
"         nne  ",
"              "};
