/* XPM */
static char * copy_xpm[] = {
"14 14 71 1",
" 	c None",
".	c #767676",
"+	c #BEBEBE",
"@	c #979797",
"#	c #3B3B37",
"$	c #A0A090",
"%	c #707064",
"&	c #8E8E8E",
"*	c #70706D",
"=	c #94948F",
"-	c #CACAB8",
";	c #B7B7A4",
">	c #555552",
",	c #A6A6A6",
"'	c #474747",
")	c #7D7D70",
"!	c #4F4F4C",
"~	c #777773",
"{	c #7E7E71",
"]	c #CECEB9",
"^	c #E0E0C8",
"/	c #4B4B43",
"(	c #787875",
"_	c #ACACA1",
":	c #D6D6C0",
"<	c #6E6E63",
"[	c #68685D",
"}	c #CDCDB8",
"|	c #DDDDC6",
"1	c #E3E3CC",
"2	c #4C4C44",
"3	c #B1B1AC",
"4	c #8C8C81",
"5	c #DADAC3",
"6	c #D4D4BE",
"7	c #585852",
"8	c #E2E2CA",
"9	c #E8E8D0",
"0	c #4E4E46",
"a	c #919181",
"b	c #CECEB8",
"c	c #DFDFC8",
"d	c #969686",
"e	c #71716F",
"f	c #CACAB5",
"g	c #E5E5CE",
"h	c #ECECD4",
"i	c #4F4F47",
"j	c #B3B3A0",
"k	c #DCDCC5",
"l	c #E2E2CB",
"m	c #E7E7D0",
"n	c #E5E5CD",
"o	c #474740",
"p	c #45453D",
"q	c #ADAD9B",
"r	c #606058",
"s	c #44443D",
"t	c #DBDBC4",
"u	c #E7E7CF",
"v	c #C6C6B2",
"w	c #808073",
"x	c #70706F",
"y	c #D6D6D6",
"z	c #727270",
"A	c #ACAC9A",
"B	c #737367",
"C	c #545450",
"D	c #5F5F5F",
"E	c #5E5E57",
"F	c #000000",
"              ",
"              ",
"   ..         ",
"+@#$%&  &+    ",
"&*=-;>,')!    ",
"&~{]^/(_:<,   ",
"&[}|123456'   ",
",7|890abc1de  ",
" 'fghijklmno  ",
"  pqr'stuhvw. ",
"  xx,yzA5BC&  ",
"  +&DD,E',    ",
"  &FFF ,      ",
"    ,,        "};
