/* XPM */
static char * cut_xpm[] = {
"14 14 11 1",
" 	c None",
".	c #767676",
"+	c #5F5F5F",
"@	c #2F2F2F",
"#	c #BEBEBE",
"$	c #8E8E8E",
"%	c #D6D6D6",
"&	c #A6A6A6",
"*	c #474747",
"=	c #171717",
"-	c #000000",
"              ",
"              ",
"          .   ",
"        +@    ",
"       .@#    ",
"#$$#  +@%%#$& ",
"+$+@ .@#&*@+& ",
"+$+@*=--**    ",
"#$$#&=$$      ",
"   &*=        ",
"  &.%*        ",
"  $+.&        ",
"  #$&         ",
"              "};
