/* XPM */
static char * exit_xpm[] = {
"14 14 36 1",
" 	c None",
".	c #888888",
"+	c #555555",
"@	c #91918C",
"#	c #B6B6B0",
"$	c #000000",
"%	c #CDCDCD",
"&	c #ABABAB",
"*	c #444444",
"=	c #E4E4DC",
"-	c #1E1213",
";	c #BCBCBC",
">	c #4C2E30",
",	c #935B5E",
"'	c #605755",
")	c #B8B8B2",
"!	c #666662",
"~	c #C8C8C1",
"{	c #2C1819",
"]	c #784244",
"^	c #844A4B",
"/	c #8D5254",
"(	c #A36366",
"_	c #C2797D",
":	c #AA6E71",
"<	c #52524F",
"[	c #8C8C87",
"}	c #191919",
"|	c #BDBDB7",
"1	c #767672",
"2	c #2D2D2C",
"3	c #92928D",
"4	c #010101",
"5	c #565656",
"6	c #5A5A5A",
"7	c #8B8B8B",
"              ",
"              ",
"      .++++++.",
"      +@####$+",
"    %&*#====$+",
"    &--#====$+",
";+++*>,'=)!~$+",
"&{]^/(_:<[}|$+",
"&{]^/(_:<===$+",
";+++*>,'====$+",
"    &--#====$+",
"    %&*#==12$+",
"      +@344445",
"      .+566667"};
