/* XPM */
static char * generate_xpm[] = {
"14 14 79 1",
" 	c None",
".	c #A6A6A6",
"+	c #27251C",
"@	c #28261C",
"#	c #4A4942",
"$	c #BEBEBE",
"%	c #66624E",
"&	c #A19972",
"*	c #A49C74",
"=	c #928B67",
"-	c #56544A",
";	c #8E8E8E",
">	c #26241B",
",	c #B1A87D",
"'	c #9C946E",
")	c #8C8563",
"!	c #14130E",
"~	c #ADA57A",
"{	c #B6AD80",
"]	c #938C68",
"^	c #65614E",
"/	c #756F52",
"(	c #56544B",
"_	c #767676",
":	c #4E4A3E",
"<	c #6A6652",
"[	c #4B4735",
"}	c #423E2E",
"|	c #958D69",
"1	c #BFB687",
"2	c #6C674C",
"3	c #69644A",
"4	c #676148",
"5	c #74736E",
"6	c #99926C",
"7	c #CBC18F",
"8	c #CDC391",
"9	c #CFC592",
"0	c #CEC492",
"a	c #C8BF8E",
"b	c #6B654B",
"c	c #C7BE8D",
"d	c #D2C895",
"e	c #D1C793",
"f	c #C3BA8A",
"g	c #D4CA96",
"h	c #D1C794",
"i	c #716B4F",
"j	c #5A584D",
"k	c #474747",
"l	c #BCB385",
"m	c #AAA278",
"n	c #A39C73",
"o	c #C2B989",
"p	c #D2C894",
"q	c #CAC08E",
"r	c #7F7959",
"s	c #7E7859",
"t	c #D0C693",
"u	c #D1C894",
"v	c #A9A177",
"w	c #D0C692",
"x	c #CEC592",
"y	c #9A926D",
"z	c #5F5F5F",
"A	c #847D5D",
"B	c #CCC290",
"C	c #CEC491",
"D	c #413E2D",
"E	c #59574D",
"F	c #ABA278",
"G	c #847E5D",
"H	c #B0A87D",
"I	c #C5BC8B",
"J	c #99916C",
"K	c #8C8562",
"L	c #BBB284",
"M	c #3D3A2B",
"N	c #73726D",
" .+@#$        ",
".%&*=-        ",
";>,')! .;$    ",
";>~{]!.^/(..  ",
" _:<[]}|1234. ",
"  ..567890ab. ",
"   .3cdefghij$",
"   klcdmnopqr;",
"   _s,tuvwxy<.",
"    zABt9CcD. ",
"    EFGHIJ=K_ ",
"    $EzsLMNN  ",
"       _k.    ",
"              "};
