/* XPM */
static char * new_xpm[] = {
"14 14 74 1",
" 	c None",
".	c #A6A6A6",
"+	c #8E8E8E",
"@	c #50504D",
"#	c #707064",
"$	c #474740",
"%	c #474747",
"&	c #7A7A6D",
"*	c #B1B19F",
"=	c #DCDCC5",
"-	c #B5B5A4",
";	c #767676",
">	c #BEBEBE",
",	c #4B4B4B",
"'	c #52524C",
")	c #CBCBB5",
"!	c #D6D6C0",
"~	c #D8D8C1",
"{	c #DDDDC5",
"]	c #E2E2CA",
"^	c #88887A",
"/	c #949494",
"(	c #828282",
"_	c #6F6F68",
":	c #CDCDB7",
"<	c #D7D7C0",
"[	c #DADAC3",
"}	c #E0E0C8",
"|	c #E5E5CD",
"1	c #D7D7C1",
"2	c #6A6A64",
"3	c #9D9D9B",
"4	c #B2B2AF",
"5	c #8F8F80",
"6	c #D6D6BF",
"7	c #DFDFC7",
"8	c #E8E8CF",
"9	c #EAEAD2",
"0	c #EFEFD6",
"a	c #CFCFBA",
"b	c #9E9E99",
"c	c #7F7F7A",
"d	c #A3A392",
"e	c #E4E4CC",
"f	c #EBEBD2",
"g	c #F2F2D9",
"h	c #F3F3DA",
"i	c #848479",
"j	c #1A1A19",
"k	c #B9B9A5",
"l	c #D9D9C2",
"m	c #E1E1CA",
"n	c #E7E7CF",
"o	c #EEEED5",
"p	c #F4F4DB",
"q	c #E8E8D1",
"r	c #757569",
"s	c #5E5E59",
"t	c #DDDDC6",
"u	c #E9E9D0",
"v	c #F5F5DC",
"w	c #BBBBA8",
"x	c #D8D8C2",
"y	c #F0F0D7",
"z	c #99998E",
"A	c #EDEDD4",
"B	c #F1F1D8",
"C	c #68685D",
"D	c #63635E",
"E	c #D2D2BC",
"F	c #A9A997",
"G	c #71716F",
"H	c #909082",
"I	c #545450",
"       ..     ",
"     +@#$     ",
"   .%&*=-;    ",
" >,')!~{]^/   ",
" +(_:<[}|12   ",
" +34567890a%  ",
" +bcd[ef0ghi. ",
" +jklmnogppqr.",
" +s[teu0gvvvw%",
"  %x]nfyhv0i% ",
"  .zn9ABh[C.  ",
"   DEoynF;    ",
"   +^BmCG     ",
"    ;HI       "};
