/* XPM */
static char * open_xpm[] = {
"14 14 30 1",
" 	c None",
".	c #767676",
"+	c #BEBEBE",
"@	c #8E8E8E",
"#	c #A6A6A6",
"$	c #514F4A",
"%	c #333029",
"&	c #77705F",
"*	c #999489",
"=	c #B4B4B3",
"-	c #666052",
";	c #474747",
">	c #5B574E",
",	c #88806D",
"'	c #DDD9CD",
")	c #C6C5C0",
"!	c #555454",
"~	c #22201B",
"{	c #A49C88",
"]	c #BBB4A4",
"^	c #FFFEF7",
"/	c #AAA9A4",
"(	c #5A5852",
"_	c #555044",
":	c #99907B",
"<	c #555452",
"[	c #AFA896",
"}	c #F3F1E9",
"|	c #11100D",
"1	c #706F6C",
"              ",
"              ",
"        ..    ",
" +@ #@$%&*=@@ ",
" $-;>-,'')!-~ ",
" $,{]^^/(_::% ",
" @-]^)<-,:::% ",
"  ;[}%::::::% ",
"  #_'%::::::% ",
"   $,%:::,-;# ",
"   @-%:::$@   ",
"    ;%&>;     ",
"    #|1#      ",
"              "};
