/* XPM */
static char * paste_xpm[] = {
"14 14 91 1",
" 	c None",
".	c #BEBEBE",
"+	c #8E8E8E",
"@	c #45443F",
"#	c #45433E",
"$	c #A6A6A6",
"%	c #767676",
"&	c #5D5D59",
"*	c #8A897E",
"=	c #CFCCBD",
"-	c #CECABB",
";	c #474747",
">	c #2F2F2F",
",	c #45453F",
"'	c #A2A193",
")	c #A4A499",
"!	c #6F6F69",
"~	c #6E6C68",
"{	c #B3B0A5",
"]	c #88867C",
"^	c #D1CFBE",
"/	c #D0CFBE",
"(	c #747471",
"_	c #9D9B94",
":	c #6C6962",
"<	c #BCB9AC",
"[	c #B4B2A5",
"}	c #5C5C58",
"|	c #D6D6D6",
"1	c #CFCEBD",
"2	c #89877F",
"3	c #9E9B90",
"4	c #CCC9BA",
"5	c #CBC9BA",
"6	c #C9C7B8",
"7	c #43423D",
"8	c #767674",
"9	c #373731",
"0	c #A19F93",
"a	c #CECBBB",
"b	c #CDCABB",
"c	c #CAC8B8",
"d	c #4B4B46",
"e	c #6C6C67",
"f	c #979788",
"g	c #C6C6B2",
"h	c #73726B",
"i	c #CDC9BB",
"j	c #CAC8B9",
"k	c #4C4C4A",
"l	c #8D8D89",
"m	c #BCBCAE",
"n	c #DADAC3",
"o	c #7E7E71",
"p	c #CAC9B9",
"q	c #C9C5B7",
"r	c #2E2E2B",
"s	c #868679",
"t	c #CECEB9",
"u	c #DEDEC7",
"v	c #BFBFAB",
"w	c #575753",
"x	c #42423C",
"y	c #C7C4B5",
"z	c #C4C1B1",
"A	c #BFBDAB",
"B	c #393933",
"C	c #CACAB5",
"D	c #E2E2CB",
"E	c #E9E9D1",
"F	c #CCCCB7",
"G	c #747472",
"H	c #969285",
"I	c #BDB9A7",
"J	c #B9B5A2",
"K	c #10100E",
"L	c #A3A392",
"M	c #E2E2CA",
"N	c #E6E6CF",
"O	c #EDEDD5",
"P	c #F2F2D9",
"Q	c #62625A",
"R	c #6A685F",
"S	c #69675E",
"T	c #65655D",
"U	c #E6E6CE",
"V	c #DADAC4",
"W	c #8F8F80",
"X	c #545450",
"Y	c #949485",
"Z	c #3E3E37",
"              ",
"   .+@#$   .. ",
"  %&*=-; $;>> ",
"$,')!~{]+$;>> ",
";^/(_:<[}||.. ",
" @123456789$  ",
" 80ab5cdefg;  ",
" $hi4j6klmno+ ",
"  ;4p6qrstuvw ",
"   xyzABCuDEF;",
"   GHIJKLMNOPQ",
"   $RS;$TUVWX%",
"    $$  ;YZ+. ",
"         %    "};
