/* XPM */
static char * prefs_xpm[] = {
"14 14 79 1",
" 	c None",
".	c #A6A6A6",
"+	c #787878",
"@	c #474747",
"#	c #727272",
"$	c #B2B2B2",
"%	c #DFDFDF",
"&	c #767676",
"*	c #797259",
"=	c #BEBEBE",
"-	c #8E8E8E",
";	c #4C4C4C",
">	c #E1E1E1",
",	c #E0E0E0",
"'	c #8B8B8B",
")	c #77756F",
"!	c #998C61",
"~	c #564F36",
"{	c #606060",
"]	c #969696",
"^	c #E5E5E5",
"/	c #CBA6A6",
"(	c #DADADA",
"_	c #DCDCDC",
":	c #C9C9C9",
"<	c #574E2F",
"[	c #5E5E5E",
"}	c #C7C7C7",
"|	c #E6E6E6",
"1	c #E9E9E9",
"2	c #AE7575",
"3	c #BCBCBC",
"4	c #AFAFAF",
"5	c #D0D0D0",
"6	c #7E7C76",
"7	c #949494",
"8	c #D5BBBB",
"9	c #CEA2A2",
"0	c #BC8F8F",
"a	c #CACACA",
"b	c #7F7F7F",
"c	c #E2DFDF",
"d	c #C9A2A2",
"e	c #C9A5A5",
"f	c #7D7B75",
"g	c #988B60",
"h	c #574F36",
"i	c #D6D6D4",
"j	c #5E5E5B",
"k	c #7B7B7B",
"l	c #E8E8E8",
"m	c #CFC198",
"n	c #4B401D",
"o	c #37311F",
"p	c #94948F",
"q	c #BABAB1",
"r	c #B4B4A9",
"s	c #909085",
"t	c #C7CAC5",
"u	c #5D605B",
"v	c #636560",
"w	c #B5B5A9",
"x	c #B9B9AF",
"y	c #B9B9B0",
"z	c #767670",
"A	c #5C5C5C",
"B	c #919191",
"C	c #CDCDC8",
"D	c #C4C4BF",
"E	c #D8D9D8",
"F	c #E1E1DE",
"G	c #DCDCDA",
"H	c #E3E3E3",
"I	c #AEAEAE",
"J	c #7D7D7D",
"K	c #494949",
"L	c #757575",
"M	c #909082",
"N	c #545450",
"     .+@.   . ",
"    @#$%@  &*.",
"=-@;>,>>'-)!~.",
"{]%^/(_$:{!<. ",
"[}|123456!~.  ",
"-7890a^b!<+.  ",
" @cde^fgh.ij. ",
" .k^lmnopqrs@ ",
"  {:tuvwxyzA  ",
"  -BCDEFG&-=  ",
"   @H^>I@.    ",
"   .J,KL      ",
"    .@        ",
"    &MN       "};
