/* XPM */
static char * refresh_xpm[] = {
"14 14 11 1",
" 	c None",
".	c #000000",
"+	c #566B43",
"@	c #4C603C",
"#	c #526741",
"$	c #5A7046",
"%	c #37452B",
"&	c #425334",
"*	c #445636",
"=	c #475937",
"-	c #5C7449",
"      .       ",
"     ..       ",
"    .+@..     ",
"    #$##@..   ",
"   . ..  .%.  ",
"  .   .   .%. ",
" ..        .. ",
" ..        .. ",
" .&.   .   .  ",
"  .*...#=     ",
"   .##-#@.    ",
"    ...@*     ",
"       ..     ",
"       .      "};
