/* XPM */
static char * remove_xpm[] = {
"14 14 79 1",
" 	c None",
".	c #BEBEBE",
"+	c #8E8E8E",
"@	c #878787",
"#	c #545852",
"$	c #757F6F",
"%	c #81857E",
"&	c #5D6557",
"*	c #43493E",
"=	c #697261",
"-	c #474747",
";	c #A6A6A6",
">	c #727B6C",
",	c #BECAB6",
"'	c #B3BFA8",
")	c #6C7664",
"!	c #565D50",
"~	c #676F5F",
"{	c #9BA98F",
"]	c #98A58C",
"^	c #32362E",
"/	c #586752",
"(	c #C0CCBB",
"_	c #C8D1C1",
":	c #ACB8A1",
"<	c #9FAC92",
"[	c #99A68D",
"}	c #7D9175",
"|	c #252922",
"1	c #434A3D",
"2	c #697B63",
"3	c #84997E",
"4	c #7C9277",
"5	c #708669",
"6	c #61735B",
"7	c #566552",
"8	c #3A4238",
"9	c #3F413E",
"0	c #4B5748",
"a	c #3C433A",
"b	c #3A4038",
"c	c #363B34",
"d	c #313530",
"e	c #2F322E",
"f	c #363E34",
"g	c #83957E",
"h	c #81927B",
"i	c #82937E",
"j	c #677B63",
"k	c #596955",
"l	c #586653",
"m	c #455242",
"n	c #606060",
"o	c #919191",
"p	c #BFBFBF",
"q	c #050505",
"r	c #080808",
"s	c #353535",
"t	c #82957E",
"u	c #80917B",
"v	c #677B62",
"w	c #576652",
"x	c #455142",
"y	c #879D81",
"z	c #7B8D75",
"A	c #859781",
"B	c #6A7F64",
"C	c #596855",
"D	c #5C6D57",
"E	c #445141",
"F	c #4B5149",
"G	c #52634C",
"H	c #4F5E4A",
"I	c #4C5C48",
"J	c #495845",
"K	c #465443",
"L	c #1B1B1B",
"M	c #4C4C4C",
"N	c #A8A8A8",
"              ",
"   .+++++     ",
"  @#$%&*=-;   ",
" +>,')!~{]^   ",
" +/(_:<{[}|   ",
" ;123456789   ",
"  -0abcdef+   ",
"  -ghijklmnop ",
"  -ghijklmqrs ",
"  -tuivkwxqrr ",
"  -yzABCDEqr  ",
"   FGHIJKLM   ",
"   .+++++N    ",
"              "};
