/* XPM */
static char * save_as_xpm[] = {
"14 14 96 2",
"  	c None",
". 	c #A6A6A6",
"+ 	c #BEBEBE",
"@ 	c #8E8E8E",
"# 	c #6F6236",
"$ 	c #3F381F",
"% 	c #767676",
"& 	c #455254",
"* 	c #293E42",
"= 	c #474747",
"- 	c #776C46",
"; 	c #7E6F3D",
"> 	c #6E6D66",
", 	c #3E4647",
"' 	c #96A6A9",
") 	c #D0DFE1",
"! 	c #7A959A",
"~ 	c #5B5F60",
"{ 	c #76888B",
"] 	c #CDDDE0",
"^ 	c #E4ECED",
"/ 	c #C0C0C1",
"( 	c #7A6F4A",
"_ 	c #333E41",
": 	c #79949A",
"< 	c #CDDCE0",
"[ 	c #D8DADA",
"} 	c #F9F9F9",
"| 	c #C1C1C1",
"1 	c #465053",
"2 	c #121B1D",
"3 	c #7E9FA5",
"4 	c #CBDCDF",
"5 	c #E3E1E0",
"6 	c #CECAC8",
"7 	c #7B704A",
"8 	c #7E7C76",
"9 	c #BCD3D8",
"0 	c #344F55",
"a 	c #2D3739",
"b 	c #ADC6CB",
"c 	c #E1E0DF",
"d 	c #73653B",
"e 	c #4F4B3D",
"f 	c #6F7878",
"g 	c #B8CFD2",
"h 	c #53858F",
"i 	c #5D959F",
"j 	c #393D3E",
"k 	c #666A6B",
"l 	c #69878D",
"m 	c #EDF1F2",
"n 	c #B9B3AF",
"o 	c #9FA1A2",
"p 	c #94B0B5",
"q 	c #729AA2",
"r 	c #3E5D63",
"s 	c #406871",
"t 	c #49767F",
"u 	c #355359",
"v 	c #364548",
"w 	c #94BBC3",
"x 	c #BAD2D6",
"y 	c #64939C",
"z 	c #748D93",
"A 	c #CDD1D2",
"B 	c #E9E9E9",
"C 	c #5F7377",
"D 	c #48747D",
"E 	c #41666E",
"F 	c #0C1213",
"G 	c #6E9BA5",
"H 	c #67A0AB",
"I 	c #AFB9BC",
"J 	c #9DA6A9",
"K 	c #E2E6E7",
"L 	c #E5E5E5",
"M 	c #AAB2B3",
"N 	c #638F97",
"O 	c #1A282B",
"P 	c #020405",
"Q 	c #253235",
"R 	c #669BA5",
"S 	c #7B979D",
"T 	c #8F9596",
"U 	c #9EBBC0",
"V 	c #CACECF",
"W 	c #6C6F70",
"X 	c #404445",
"Y 	c #65696A",
"Z 	c #2F4C52",
"` 	c #65949D",
" .	c #BCC4C6",
"..	c #788284",
"+.	c #333737",
"@.	c #989898",
"                      . .   ",
"              + @   . # $   ",
"            % & * = - ; >   ",
"      + @ , ' ) ! # ; %     ",
"    % ~ { ] ^ / ( ; >       ",
". _ : < [ } | # ; 1 2       ",
"= 3 4 5 6 | 7 ; 8 9 0 %     ",
"  a b c 6 d e f g h i j +   ",
"  k l m n o p q r s t u @   ",
"  . v w x y z A B C D E F   ",
"    = G H I J K L M N O P   ",
"      Q R S T U V W X %     ",
"      Y Z `  ...+.@.+       ",
"        % = = %             "};
