/* XPM */
static char * save_xpm[] = {
"14 14 87 1",
" 	c None",
".	c #8E8E8E",
"+	c #4A5254",
"@	c #3F4344",
"#	c #BEBEBE",
"$	c #A6A6A6",
"%	c #474747",
"&	c #7A878A",
"*	c #A5B7BA",
"=	c #455A5F",
"-	c #5A5E5E",
";	c #657072",
">	c #C3D4D7",
",	c #E2EAEC",
"'	c #F7F9FA",
")	c #84A0A6",
"!	c #1D2527",
"~	c #62777B",
"{	c #A6B6BA",
"]	c #E4ECED",
"^	c #FFFFFF",
"/	c #CADADD",
"(	c #475A5E",
"_	c #767676",
":	c #2E3638",
"<	c #9CB5BB",
"[	c #E5ECED",
"}	c #F6F9F9",
"|	c #9BB9BF",
"1	c #6C6E6E",
"2	c #788C90",
"3	c #ECF2F3",
"4	c #F9FBFB",
"5	c #D0DEE1",
"6	c #83A7B0",
"7	c #424E50",
"8	c #ACC4C9",
"9	c #F7F9F9",
"0	c #FDFDFD",
"a	c #F6F8F9",
"b	c #C4D5D9",
"c	c #83A1A7",
"d	c #617F86",
"e	c #5B7980",
"f	c #64848C",
"g	c #859FA5",
"h	c #D6E2E5",
"i	c #D1DEE1",
"j	c #9BB8BF",
"k	c #6B848A",
"l	c #A9B4B7",
"m	c #949B9C",
"n	c #6E8C93",
"o	c #5F7E86",
"p	c #485D61",
"q	c #2D3739",
"r	c #80A4AC",
"s	c #76989F",
"t	c #B6BEC1",
"u	c #CBD0D2",
"v	c #E5E6E7",
"w	c #D2D4D5",
"x	c #7C8B8E",
"y	c #65878E",
"z	c #2D3C3F",
"A	c #6B6F6F",
"B	c #6C848A",
"C	c #C9D0D1",
"D	c #607377",
"E	c #C4D0D2",
"F	c #D4D4D4",
"G	c #8C9395",
"H	c #212B2E",
"I	c #666768",
"J	c #3D4A4D",
"K	c #6C9199",
"L	c #96ACB1",
"M	c #CDD0D1",
"N	c #929697",
"O	c #646869",
"P	c #575757",
"Q	c #1D2729",
"R	c #1F2A2C",
"S	c #414242",
"T	c #6F7070",
"U	c #909082",
"V	c #545450",
"              ",
"       .+@#   ",
"     $%&*=.   ",
"   .-;>,')!   ",
" $%~{]'^^/(_  ",
" :<[^^^^^}|@# ",
" 123^^^^456=. ",
" $7890abcdef! ",
"  %ghijklmnop_",
"   qrstuvwxyz%",
"   ABsCDEFGHI$",
"   $JKLMNOP   ",
"    $QRST$    ",
"    _UV       "};
