/* XPM */
static char * tutorial_xpm[] = {
"14 14 61 1",
" 	c None",
".	c #8E8E8E",
"+	c #A6A6A6",
"@	c #767676",
"#	c #3A4E56",
"$	c #465E67",
"%	c #3E555E",
"&	c #474747",
"*	c #BEBEBE",
"=	c #41484A",
"-	c #6B8E9B",
";	c #5F828F",
">	c #5E808D",
",	c #1F2A2F",
"'	c #C0C0C0",
")	c #445962",
"!	c #658896",
"~	c #49636D",
"{	c #5B5F60",
"]	c #374950",
"^	c #678A98",
"/	c #3E4D52",
"(	c #8D8D8C",
"_	c #686965",
":	c #678895",
"<	c #618491",
"[	c #3C3C3C",
"}	c #AEAFAD",
"|	c #4D4E4C",
"1	c #3A5058",
"2	c #678A97",
"3	c #B4B4B3",
"4	c #777974",
"5	c #524646",
"6	c #373236",
"7	c #212D31",
"8	c #3A4746",
"9	c #56696A",
"0	c #5A7B87",
"a	c #ACACAA",
"b	c #323331",
"c	c #382828",
"d	c #CEB6B4",
"e	c #F1F0EC",
"f	c #B1B1AE",
"g	c #666664",
"h	c #4B4A49",
"i	c #6A6B68",
"j	c #756C6D",
"k	c #483C3C",
"l	c #6D7475",
"m	c #C8CFCC",
"n	c #E1E0DD",
"o	c #B2B3B1",
"p	c #4F504F",
"q	c #495153",
"r	c #747C7B",
"s	c #979B98",
"t	c #686F69",
"u	c #696D6E",
"v	c #0A0E0F",
"              ",
"     ......+  ",
"    @#$%%%%&  ",
"   *=-;>>>,'  ",
"   .)!>>>~{'  ",
"  +]^>>>>/(_  ",
"  &:<>>>>[}|  ",
" .12>>>>,34@  ",
" 567890~{ab   ",
" cdeefgh.i.   ",
" jklmeenop*   ",
"   +&qrst@    ",
"     *.uv     ",
"              "};
