/* XPM */
static char * bitmap_button_xpm[] = {
"21 21 46 1",
" 	c None",
".	c #FFFFFF",
"+	c #000000",
"@	c #D6D6D6",
"#	c #7B7B7B",
"$	c #40FFFF",
"%	c #7FFFFF",
"&	c #60FFFF",
"*	c #38F7F7",
"=	c #C2E2E2",
"-	c #C6E6E6",
";	c #00FFFF",
">	c #2ECECE",
",	c #20FFFF",
"'	c #30FFFF",
")	c #2AF9F9",
"!	c #A6E6E6",
"~	c #BECD3E",
"{	c #8FFFFF",
"]	c #1FAEAE",
"^	c #36C5C5",
"/	c #2ECDCD",
"(	c #BECE3E",
"_	c #4D4D4D",
":	c #8ECECE",
"<	c #4ECDCD",
"[	c #009F9F",
"}	c #172727",
"|	c #1F1F1F",
"1	c #10FFFF",
"2	c #008080",
"3	c #A0A0A0",
"4	c #AEAEDE",
"5	c #00BD80",
"6	c #005F40",
"7	c #8686E5",
"8	c #00DE00",
"9	c #006F00",
"0	c #3636F5",
"a	c #00FF00",
"b	c #008000",
"c	c #787878",
"d	c #7878A8",
"e	c #0000BF",
"f	c #00BF00",
"g	c #007F00",
"                     ",
"                     ",
"                     ",
" ..................+ ",
" .@@@@@@@@@@@@@@@@#+ ",
" .@$%&*=-$&;;>>;@@#+ ",
" .@,$';)!;';>~~>@@#+ ",
" .@;{{;;]#^'/((/@@#+ ",
" .@$;;;>_##:;/<$@@#+ ",
" .@,;;[}|||}[;1,@@#+ ",
" .@;;;234@432;;;@@#+ ",
" .@555637@736555@@#+ ",
" .@8889340439888@@#+ ",
" .@aaabcdedcbaaa@@#+ ",
" .@aaafgggggfaaa@@#+ ",
" .@@@@@@@@@@@@@@@@#+ ",
" .#################+ ",
" +++++++++++++++++++ ",
"                     ",
"                     ",
"                     "};
