/* XPM */
static char * calendar_ctrl_xpm[] = {
"21 21 8 1",
" 	c None",
".	c #000000",
"+	c #BFBFBF",
"@	c #FEFEFE",
"#	c #8E8ED1",
"$	c #FFFFFF",
"%	c #FF8080",
"&	c #FFF1F1",
"                     ",
"                     ",
".....................",
".+++++++++++++++++++.",
".+@@++@@+++++@@@@@@+.",
".+++++++++++++++++++.",
".....................",
".###################.",
".$$$$$$$$$$$$$$$$$$$.",
".$$$$$##$$##$$##$%%$.",
".$$$$$##$$##$$##$%%$.",
".$$$$$$$$$$$$$$$$$&$.",
".$##$$##$$##$$##$%%$.",
".$##$$##$$##$$##$%%$.",
".$$$$$$$$$$$$$$$$$$$.",
".$##$$##$$##$$##$$$$.",
".$##$$##$$##$$##$$$$.",
".$$$$$$$$$$$$$$$$$$$.",
".....................",
"                     ",
"                     "};
