/* XPM */
static char * checkbox_xpm[] = {
"21 21 5 1",
" 	c None",
".	c #848284",
"+	c #FFFFFF",
"@	c #000000",
"#	c #C6C3C6",
"                     ",
"                     ",
"                     ",
"                     ",
"    ............+    ",
"    .@@@@@@@@@@#+    ",
"    .@+++++++++#+    ",
"    .@+++++++@+#+    ",
"    .@++++++@@+#+    ",
"    .@+@+++@@@+#+    ",
"    .@+@@+@@@++#+    ",
"    .@+@@@@@+++#+    ",
"    .@++@@@++++#+    ",
"    .@+++@+++++#+    ",
"    .@+++++++++#+    ",
"    .###########+    ",
"    +++++++++++++    ",
"                     ",
"                     ",
"                     ",
"                     "};
