/* XPM */
static char * choice_xpm[] = {
"21 21 24 1",
" 	c None",
".	c #FFFFFF",
"+	c #000000",
"@	c #D5D5D5",
"#	c #7C7C7C",
"$	c #040404",
"%	c #D6D6D6",
"&	c #171717",
"*	c #D4D4D4",
"=	c #E2E2E2",
"-	c #101010",
";	c #0C0C0C",
">	c #D8D8D8",
",	c #131313",
"'	c #D7D7D7",
")	c #D2D2D2",
"!	c #FBFBFB",
"~	c #070707",
"{	c #111111",
"]	c #010101",
"^	c #1B1B1B",
"/	c #090909",
"(	c #0F0F0F",
"_	c #0A0A0A",
"                     ",
"                     ",
"                     ",
"                     ",
"....................+",
".@@@@@@@@@@@@@@@@@@#$",
".@@@@@@@@@@@@@@@@@@#$",
".%@@@@@@@@@@@@@@@@@#+",
".%@@@@@@@@@@@@@@@@@#&",
".%@@@@@@@@*@@...@@@#+",
".%@@@@@@@@@@@.==-@@#+",
".%@@@@@@@@@@@@+++@@#;",
".%@@@@@@@@@@@@@@@@@#+",
".%@@@@@@@@@@>%@@@@@#,",
".%@'%@@@@@@@@@@*')@#+",
"!@@@@@@@%%%%%@@@@@@#+",
".###################~",
"++{]^+]++++++++/+++(_",
"                     ",
"                     ",
"                     "};
