/* XPM */
static char * combo_box_xpm[] = {
"21 21 5 1",
" 	c None",
".	c #848284",
"+	c #000000",
"@	c #C6C3C6",
"#	c #FFFFFF",
"                     ",
"                     ",
".....................",
".+++++++++++++++++++@",
".+#####@@@@@@@@@@@@+@",
".+#####@##########.+@",
".+#####@#@@@@@@@@@.+@",
".+#####@#@@@@@@@@@.+@",
".+#####@#@@@@@@@@@.+@",
".+#####@#@++++++.@.+@",
".+#####@#@@++++.@@.+@",
".+#####@#@@@++.@@@.+@",
".+#####@#@@@@.@@@@.+@",
".+#####@#@@@@@@@@@.+@",
".+#####@#@@@@@@@@@.+@",
".+#####@#@@@@@@@@@.+@",
".+#####@...........+@",
".+#####+++++++++++++@",
".@@@@@@@@@@@@@@@@@@@@",
"#####################",
"                     "};
