/* XPM */
static char * datepicker_ctrl_xpm[] = {
"21 21 24 1",
" 	c None",
".	c #000000",
"+	c #060608",
"@	c #000002",
"#	c #020202",
"$	c #010101",
"%	c #080808",
"&	c #131313",
"*	c #FFFFFF",
"=	c #F7F7F7",
"-	c #FDFDFD",
";	c #FCFCFC",
">	c #787878",
",	c #C6C3C6",
"'	c #FBFBFB",
")	c #0C0C0C",
"!	c #090909",
"~	c #BFBFBF",
"{	c #0B0B0B",
"]	c #0A0A0A",
"^	c #F6F6F6",
"/	c #030303",
"(	c #FEFEFE",
"_	c #040404",
"                     ",
"                     ",
"                     ",
"                     ",
"                     ",
"                     ",
".+.@..@.@.@#$$.#%....",
"&**********=.--**;;>#",
".**----.---*#-,,,,,>.",
".******.***'.-,...,>$",
"$******.***-)-,,!,,>.",
"%**---.-----.-,,,~,>{",
"]^...*.*...*/-,,,,,>]",
".*(*********.>>>>>>>.",
"_{.$$$$$$$$$$$$$$$$$$",
"                     ",
"                     ",
"                     ",
"                     ",
"                     ",
"                     "};
