/* XPM */
static char * dialog_xpm[] = {
"21 21 173 2",
"  	c None",
". 	c #7D7F7E",
"+ 	c #666A69",
"@ 	c #747877",
"# 	c #696F6D",
"$ 	c #7F838C",
"% 	c #7A7796",
"& 	c #706B93",
"* 	c #7A759D",
"= 	c #928EB3",
"- 	c #79759A",
"; 	c #716D8E",
"> 	c #928FAE",
", 	c #686580",
"' 	c #817F94",
") 	c #737282",
"! 	c #6F6F79",
"~ 	c #787E7C",
"{ 	c #191F1D",
"] 	c #4C5552",
"^ 	c #E7F0ED",
"/ 	c #00050D",
"( 	c #0E0D2F",
"_ 	c #090331",
": 	c #120C38",
"< 	c #06002C",
"[ 	c #07022B",
"} 	c #050126",
"| 	c #120E2F",
"1 	c #14112E",
"2 	c #000013",
"3 	c #100F21",
"4 	c #191925",
"5 	c #000005",
"6 	c #7D8884",
"7 	c #000400",
"8 	c #AFBAB6",
"9 	c #8D9894",
"0 	c #040B13",
"a 	c #FBFAFF",
"b 	c #FEF9FF",
"c 	c #F6F1FF",
"d 	c #1A153D",
"e 	c #0A062B",
"f 	c #181437",
"g 	c #00001B",
"h 	c #E3E0FB",
"i 	c #121026",
"j 	c #CBCADC",
"k 	c #00000B",
"l 	c #07080D",
"m 	c #75807C",
"n 	c #788480",
"o 	c #6A7672",
"p 	c #798581",
"q 	c #737C81",
"r 	c #78798E",
"s 	c #797695",
"t 	c #747190",
"u 	c #7B7897",
"v 	c #827F9E",
"w 	c #6B6885",
"x 	c #8D8AA5",
"y 	c #6E6C82",
"z 	c #78768B",
"A 	c #7A7989",
"B 	c #80808C",
"C 	c #06060E",
"D 	c #67726E",
"E 	c #F7FFFF",
"F 	c #F3FFFB",
"G 	c #F8FFFF",
"H 	c #F4F7FF",
"I 	c #FAF9FF",
"J 	c #FEFDFF",
"K 	c #F9F8FF",
"L 	c #FDFCFF",
"M 	c #FAFAFF",
"N 	c #7D7D89",
"O 	c #000007",
"P 	c #828D89",
"Q 	c #F3FEFA",
"R 	c #E3EEEA",
"S 	c #F9FFFF",
"T 	c #FCFFFF",
"U 	c #FCFDFF",
"V 	c #F4F5F7",
"W 	c #FEFFFF",
"X 	c #F7F7FF",
"Y 	c #FEFEFF",
"Z 	c #7D7D87",
"` 	c #707674",
" .	c #FBFFFF",
"..	c #F5FEFB",
"+.	c #89928F",
"@.	c #F0F9F4",
"#.	c #787E74",
"$.	c #686B60",
"%.	c #FEFFF8",
"&.	c #7A7D76",
"*.	c #767875",
"=.	c #727375",
"-.	c #77787C",
";.	c #FAFBFF",
">.	c #7D7E83",
",.	c #8D8F8E",
"'.	c #F9FDFC",
").	c #F2F6F5",
"!.	c #F6FCFA",
"~.	c #F6FDF6",
"{.	c #FBFFF1",
"].	c #FEFFF3",
"^.	c #FEFFF4",
"/.	c #FEFFF6",
"(.	c #F4F7F0",
"_.	c #F9FBF6",
":.	c #FEFFFD",
"<.	c #7D7E82",
"[.	c #000004",
"}.	c #6B6B6B",
"|.	c #FFFFFF",
"1.	c #FEFFFB",
"2.	c #FDFFF3",
"3.	c #EDF0E5",
"4.	c #FEFFFA",
"5.	c #F0F2ED",
"6.	c #F4F6F5",
"7.	c #FAFBFD",
"8.	c #7D7E80",
"9.	c #000002",
"0.	c #858384",
"a.	c #FDF9FA",
"b.	c #E5E3E4",
"c.	c #FFFEFF",
"d.	c #6D6D6B",
"e.	c #6D7069",
"f.	c #84877E",
"g.	c #E4E6E1",
"h.	c #8A8C89",
"i.	c #7E807F",
"j.	c #000100",
"k.	c #7B7778",
"l.	c #FFFDFF",
"m.	c #E8E4E5",
"n.	c #8D8B8C",
"o.	c #090909",
"p.	c #010302",
"q.	c #F1F2F4",
"r.	c #747579",
"s.	c #010206",
"t.	c #FAFCFB",
"u.	c #7D7F7C",
"v.	c #858182",
"w.	c #F7F3F4",
"x.	c #FBF7F8",
"y.	c #EDEEF2",
"z.	c #F8F9FD",
"A.	c #7D7B7C",
"B.	c #848283",
"C.	c #6A6869",
"D.	c #878586",
"E.	c #727272",
"F.	c #797979",
"G.	c #79797B",
"H.	c #777777",
"I.	c #898989",
"J.	c #000000",
"K.	c #080808",
"L.	c #0F0F0F",
"M.	c #070707",
"N.	c #010101",
"O.	c #060606",
"P.	c #020202",
"                                          ",
"                                          ",
"                                          ",
"    . + @ # $ % & * = - ; > , ' ) !       ",
"    ~ { ] ^ / ( _ : < [ } | 1 2 3 4 5     ",
"    6 7 8 9 0 a b c d e f g h i j k l     ",
"    m n o p q r s t u v w x y z A B C     ",
"    D E E F G H I J J a K L a J M N O     ",
"    P G Q R S T U V W W X Y Y Y M Z O     ",
"    `  ...+.@.#.$.%.&.*.W =.-.W ;.>.5     ",
"    ,.'.).!.~.{.].^./.(._.:.W W ;.<.[.    ",
"    }.|.|.W 1./.2.3.%.4.5.:.6.W 7.8.9.    ",
"    0.a.b.c.d.e.f.4.g.h.. i.W W 7.. j.    ",
"    k.l.c.m.n.o.p.q.W r.s.[.W W t.u.j.    ",
"    v.w.x.c.c.|.y.W W z.W z.W W t.u.j.    ",
"    A.B.C.D.E.F.G.G.G.G.G.G.G.H.I.}.J.    ",
"      J.K.L.M.N.N.N.N.N.N.N.N.J.N.O.P.    ",
"                                          ",
"                                          ",
"                                          ",
"                                          "};
