/* XPM */
static char * frame_xpm[] = {
"21 21 11 1",
" 	c None",
".	c #7B7B7B",
"+	c #F2F2F2",
"@	c #00007B",
"#	c #FF0000",
"$	c #FFFF00",
"%	c #000000",
"&	c #00FFFF",
"*	c #00FF00",
"=	c #FFFFFF",
"-	c #D6D6D6",
"                     ",
"                     ",
"....................+",
".@#$@@@@@@@@@@@@@@@.%",
".@&*@===@==@@@@@-%-.%",
"....................%",
".-=================.%",
".-=================.%",
".-=================.%",
".-=================.%",
".-=================.%",
".-=================.%",
".-=================.%",
".-=================.%",
".-=================.%",
".-=================.%",
"....................%",
"+%%%%%%%%%%%%%%%%%%%%",
"                     ",
"                     ",
"                     "};
