/* XPM */
static char * grid_sizer_xpm[] = {
"21 21 19 1",
" 	c None",
".	c #FFFFFF",
"+	c #000000",
"@	c #D8D8D8",
"#	c #7B7B7B",
"$	c #060606",
"%	c #0A0A0A",
"&	c #141414",
"*	c #FBFBFB",
"=	c #7A7A7A",
"-	c #0E0E0E",
";	c #040404",
">	c #010101",
",	c #0B0B0B",
"'	c #101010",
")	c #050505",
"!	c #030303",
"~	c #080808",
"{	c #020202",
"..........+.........+",
".@@@@@@@@#$.@@@@@@@#%",
".@@@@@@@@#+.@@@@@@@#+",
".@@@@@@@@#&.@@@@@@@#%",
".@@@@@@@@#+.@@@@@@@#+",
"*==#######+.########-",
";>>>>>>>>+,+;$$>++;+,",
"..........+.........+",
".@@@@@@@@#'.@@@@@@@#)",
".@@@@@@@@#+.@@@@@@@#+",
".@@@@@@@@#!.@@@@@@@#+",
".@@@@@@@@#+.@@@@@@@#~",
".#########+.########+",
";++++++++-+{~++;+!!++",
"..........+.........'",
".@@@@@@@@#;.@@@@@@@#;",
".@@@@@@@@#{.@@@@@@@#+",
".@@@@@@@@#$.@@@@@@@#+",
".@@@@@@@@#%.@@@@@@@#%",
".#########+.########+",
";+++++++++;!+{+++{)++"};
