/* XPM */
static char * list_box_xpm[] = {
"21 21 6 1",
" 	c None",
".	c #848284",
"+	c #000000",
"@	c #FFFFFF",
"#	c #C6C3C6",
"$	c #000084",
"                     ",
"...............++++++",
".@@@@@@@@@@@@@@+@@@#+",
".@@@$$$$$$$$$@@+@..#+",
".@@@@@@@@@@@@@@+@++#+",
".@@@$$$$$$$$@@@+####+",
".@@@@@@@@@@@@@@++++++",
".@@@$$$$$$$$$@@+@#@#+",
".@@@@@@@@@@@@@@+#@#@+",
".@@@$$$$$$$$@@@+@#@#+",
".$$$$$$$$$$$$$$+#@#@+",
".$$$@@@@@@@@@$$+@#@#+",
".$$$$$$$$$$$$$$+#@#@+",
".@@@$$$$$$$$@@@+@#@#+",
".@@@@@@@@@@@@@@++++++",
".@@@$$$$$$$$$@@+@@@#+",
".@@@@@@@@@@@@@@+@++#+",
".@@@$$$$$$$$@@@+@..#+",
".@@@@@@@@@@@@@@+####+",
".++++++++++++++++++++",
"                     "};
