/* XPM */
static char * menubar_xpm[] = {
"21 21 183 2",
"  	c None",
". 	c #F8F6F7",
"+ 	c #FFFBFC",
"@ 	c #FFFEFC",
"# 	c #FCFCFA",
"$ 	c #FEFFFD",
"% 	c #EBEDEC",
"& 	c #FFFFFF",
"* 	c #F7F2F6",
"= 	c #FFFDFF",
"- 	c #FFFEFF",
"; 	c #EEEEEE",
"> 	c #F7F7F7",
", 	c #F6F6F6",
"' 	c #000000",
") 	c #FDF9FA",
"! 	c #DED8DA",
"~ 	c #DAD6D5",
"{ 	c #D7D7D5",
"] 	c #CFD4D0",
"^ 	c #DFE4E0",
"/ 	c #E2E7E3",
"( 	c #D1D2D4",
"_ 	c #D8D6D9",
": 	c #DFD8DF",
"< 	c #D5CFD3",
"[ 	c #D6D4D7",
"} 	c #D7D7D7",
"| 	c #E2E2E2",
"1 	c #D2D2D2",
"2 	c #DBDBDB",
"3 	c #C1C1C1",
"4 	c #898989",
"5 	c #D7D1D3",
"6 	c #D9D5D4",
"7 	c #E4E4E2",
"8 	c #D2D7D3",
"9 	c #707571",
"0 	c #E1E2E4",
"a 	c #D3D1D4",
"b 	c #E9E2E9",
"c 	c #E5DFE3",
"d 	c #737174",
"e 	c #E3E3E3",
"f 	c #DADADA",
"g 	c #757575",
"h 	c #D8D8D8",
"i 	c #747474",
"j 	c #DDD7D9",
"k 	c #E0DCDB",
"l 	c #C3C3C1",
"m 	c #EAEFEB",
"n 	c #DFE0E2",
"o 	c #E6E4E7",
"p 	c #CFC8CF",
"q 	c #E3DDE1",
"r 	c #848285",
"s 	c #D6D6D6",
"t 	c #737373",
"u 	c #D5D5D5",
"v 	c #838383",
"w 	c #DBD5D7",
"x 	c #DCD8D7",
"y 	c #DFDFDD",
"z 	c #BEC3BF",
"A 	c #DEE3DF",
"B 	c #757A76",
"C 	c #DDDBDE",
"D 	c #DBD4DB",
"E 	c #D0CACE",
"F 	c #757376",
"G 	c #E1E1E1",
"H 	c #C7C7C7",
"I 	c #CACACA",
"J 	c #8B8B8B",
"K 	c #E2DCDE",
"L 	c #FEFAF9",
"M 	c #FFFFFD",
"N 	c #FAFFFB",
"O 	c #F3F8F4",
"P 	c #FCFFFD",
"Q 	c #F4F5F7",
"R 	c #716A71",
"S 	c #8D878B",
"T 	c #79777A",
"U 	c #DCDCDC",
"V 	c #868686",
"W 	c #777777",
"X 	c #6D6D6D",
"Y 	c #787878",
"Z 	c #CDC7C9",
"` 	c #FFFEFD",
" .	c #E0E0DE",
"..	c #D4D9D5",
"+.	c #DCE1DD",
"@.	c #D8D9DB",
"#.	c #E7E5E8",
"$.	c #837C83",
"%.	c #D2CCD0",
"&.	c #C9C9C9",
"*.	c #ECECEC",
"=.	c #CCCCCC",
"-.	c #878787",
";.	c #FAF6F7",
">.	c #969092",
",.	c #EEEAE9",
"'.	c #DEDEDC",
").	c #777C78",
"!.	c #787D79",
"~.	c #747975",
"{.	c #7F8082",
"].	c #D7D5D8",
"^.	c #878087",
"/.	c #7D777B",
"(.	c #7E7C7F",
"_.	c #7D7D7D",
":.	c #7F7F7F",
"<.	c #818181",
"[.	c #7E7E7E",
"}.	c #707070",
"|.	c #030000",
"1.	c #0C0608",
"2.	c #E7E7E5",
"3.	c #CED3CF",
"4.	c #DDE2DE",
"5.	c #D5DAD6",
"6.	c #DBDCDE",
"7.	c #E1DFE2",
"8.	c #827B82",
"9.	c #040002",
"0.	c #020003",
"a.	c #010101",
"b.	c #020202",
"c.	c #F6F2F1",
"d.	c #7C817D",
"e.	c #858A86",
"f.	c #898A8C",
"g.	c #7F787F",
"h.	c #090307",
"i.	c #FDF9F8",
"j.	c #EAEAE8",
"k.	c #D1D6D2",
"l.	c #D5D6D8",
"m.	c #EAE8EB",
"n.	c #756E75",
"o.	c #FFFCFB",
"p.	c #DADAD8",
"q.	c #6E736F",
"r.	c #888D89",
"s.	c #808581",
"t.	c #797A7C",
"u.	c #ECEAED",
"v.	c #0C060A",
"w.	c #DCDCDA",
"x.	c #E1E6E2",
"y.	c #D0D5D1",
"z.	c #D6D7D9",
"A.	c #E9E7EA",
"B.	c #766F76",
"C.	c #0B0509",
"D.	c #DBDBD9",
"E.	c #767B77",
"F.	c #7C7D7F",
"G.	c #DAD8DB",
"H.	c #7E777E",
"I.	c #050003",
"J.	c #F4F0EF",
"K.	c #E5EAE6",
"L.	c #D3D8D4",
"M.	c #DEDFE1",
"N.	c #D5D3D6",
"O.	c #8B848B",
"P.	c #070105",
"Q.	c #7A7A78",
"R.	c #717370",
"S.	c #7D7F7E",
"T.	c #7A7A7A",
"U.	c #8C8A8D",
"V.	c #716B6F",
"W.	c #000201",
"X.	c #020001",
"Y.	c #040001",
"Z.	c #050001",
"                                          ",
"                                          ",
"  . + @ # $ $ % & * = = - & ; & > & & , ' ",
"  ) ! ~ { ] ^ / ( _ : < [ } | 1 2 2 3 4 ' ",
"  - 5 6 7 8 ] 9 0 a b c d | 1 e f g h i ' ",
"  - j k l m ^ 9 n o p q r e s 2 1 t u v ' ",
"  + w x y z A B n C D E F G H h I J } t ' ",
"  - K L M N O P Q - R S T U v V W X f Y ' ",
"  - Z `  .../ +.@.#.$.%.[ U U &.u *.=.-.' ",
"  ;.>.,.'.).!.~.{.].^./.(.W _.:.<.X [.}.' ",
"  |.1.` 2.3.4.5.6.7.8.9.0.a.a.a.a.a.a.a.b.",
"      c.{ d.e.).f.].g.h.                  ",
"      i.j.4.3.k.l.m.n.9.                  ",
"      o.p.q.r.s.t.u.n.v.                  ",
"      ` w.x.y.+.z.A.B.C.                  ",
"      ` D.!.!.E.F.G.H.I.                  ",
"      J.'.K.L.A M.N.O.P.                  ",
"      M Q.R.).S.T.U.V.9.                  ",
"        W.W.a.a.X.Y.Z.Y.                  ",
"                                          ",
"                                          "};
