/* XPM */
static char * panel_xpm[] = {
"21 21 36 1",
" 	c None",
".	c #FFFFFF",
"+	c #FBFBFB",
"@	c #F8F8F8",
"#	c #000000",
"$	c #F5F5F5",
"%	c #D7D7D7",
"&	c #D1D1D1",
"*	c #777777",
"=	c #0C0C0C",
"-	c #FDFDFD",
";	c #D2D2D2",
">	c #CECECE",
",	c #181818",
"'	c #D6D6D6",
")	c #D8D8D8",
"!	c #FCFCFC",
"~	c #DBDBDB",
"{	c #D0D0D0",
"]	c #0B0B0B",
"^	c #090909",
"/	c #DADADA",
"(	c #080808",
"_	c #191919",
":	c #D9D9D9",
"<	c #D4D4D4",
"[	c #0A0A0A",
"}	c #F1F1F1",
"|	c #F3F3F3",
"1	c #D5D5D5",
"2	c #0D0D0D",
"3	c #0F0F0F",
"4	c #060606",
"5	c #020202",
"6	c #101010",
"7	c #040404",
".+........@.........#",
"$%%%%%%%%%%%%%%%%%&*=",
"-%%%%%%%%%%%%%%%%%;*#",
".%%%%%%%%%%%%%%%%%>*,",
".%'%%%%%%%%%%%%%%);*#",
"!%)%%%%%%%%%%%%%%~{*]",
".%%%%%%%%%%%%%)%%~%*^",
"-%'%%%%%%%%%%%%%%%/*#",
"+%%%%%%%%%%%%%%%%'&*#",
".%%%%%%%%%%%%%%%%%%*(",
".%%%%%%%%%%%%%%%%%%*#",
"+%%%%%%%%%%%%%%%%%{*_",
".%%%%%%%%%%:%%%%%%<*#",
"@%%%%%%%%%%%%%%%%%'*[",
".%%%%%%%%%%%%%%%%%'*#",
"}%%%%%%%%%%%%%%%%%~*#",
".%%%%%%%%%%%%%%%%%~*#",
".%%%%%%%%%%%%%%%%%%*#",
"|%%%%%%%%%%%%%%%1%%*2",
".*******************3",
"##[^#45#6#4###5#7#4=#"};
