/* XPM */
static char * radio_box_xpm[] = {
"21 21 76 1",
" 	c None",
".	c #D4D4D4",
"+	c #DEDEDE",
"@	c #DCDCDC",
"#	c #DADADA",
"$	c #000000",
"%	c #0F0F0F",
"&	c #E4E4E4",
"*	c #E2E2E2",
"=	c #CACACA",
"-	c #D2D2D2",
";	c #CCCCCC",
">	c #EEEEEE",
",	c #D8D8D8",
"'	c #DDDDDD",
")	c #7A7A7A",
"!	c #8C8C8C",
"~	c #7F7F7F",
"{	c #C9C9C9",
"]	c #0B0B0B",
"^	c #D7D7D7",
"/	c #080808",
"(	c #E0E0E0",
"_	c #8F8F8F",
":	c #727272",
"<	c #828282",
"[	c #7B7B7B",
"}	c #6B6B6B",
"|	c #FFFFFF",
"1	c #7C7C7C",
"2	c #F8F8F8",
"3	c #F7F7F7",
"4	c #030303",
"5	c #191919",
"6	c #C4C4C4",
"7	c #090909",
"8	c #C1C1C1",
"9	c #F4F4F4",
"0	c #F5F5F5",
"a	c #898989",
"b	c #797979",
"c	c #CDCDCD",
"d	c #0C0C0C",
"e	c #E5E5E5",
"f	c #C2C2C2",
"g	c #EAEAEA",
"h	c #D6D6D6",
"i	c #CBCBCB",
"j	c #CFCFCF",
"k	c #686868",
"l	c #6C6C6C",
"m	c #D5D5D5",
"n	c #D1D1D1",
"o	c #D9D9D9",
"p	c #E3E3E3",
"q	c #C8C8C8",
"r	c #757575",
"s	c #FCFCFC",
"t	c #777777",
"u	c #DBDBDB",
"v	c #DFDFDF",
"w	c #848284",
"x	c #D3D3D3",
"y	c #FDFDFD",
"z	c #787878",
"A	c #C6C3C6",
"B	c #717171",
"C	c #808080",
"D	c #D0D0D0",
"E	c #7D7D7D",
"F	c #F9F9F9",
"G	c #868686",
"H	c #747474",
"I	c #848484",
"J	c #888888",
"K	c #FBFBFB",
"                     ",
" .+@#$$%&$*=-.*+;>,' ",
" )!~{]@$^$$/(_:<~[}| ",
" 123+$$4+56789|0||a> ",
" b|@cde$f$/$,ghi+jk| ",
" l|;mnco'pq+f@m^+@rs ",
" t|uo.vjwwww+h=@nx<y ",
" z|^hhww$$$$ww-,hh1| ",
" z|^hw$$||||$$|,hh1| ",
" z|^hw$||||||A|,hh1| ",
" z|^w$|||$$|||A|hh1| ",
" z|^w$||$$$$||A|hh1| ",
" z|^w$||$$$$||A|hh1| ",
" z|^w$|||$$|||A|hh1| ",
" z|^hw$||||||A|,hh1| ",
" B|qmwAA||||AA|m,-C| ",
" z|#^^||AAAA||n^+DEF ",
" B|*hhhh||||xn,(o8C| ",
" z|hhhhhhhhhhhhhhhEF ",
" Gz}11111111~1rHzIJ| ",
" 3||||||||||K|||||+| "};
