/* XPM */
static char * slider_xpm[] = {
"21 21 6 1",
" 	c None",
".	c #000000",
"+	c #7B7B7B",
"@	c #FFFFFF",
"#	c #D6D6D6",
"$	c #DEDEDE",
"                     ",
"                     ",
"   ..     ..         ",
"  .  .   .  .        ",
"  .  .   .  .        ",
"  .  .   .  .        ",
"  .  .   .  .        ",
"   ..  .  ..         ",
"                     ",
"                     ",
"+++++++++++++++++++++",
"+...................@",
"+.@@@@@@@@.########$@",
"+.@###+##+.########$@",
"+.@###+##+.########$@",
"+.@+++++++.########$@",
"+..........########$@",
"+.$$$$$$$$$$$$$$$$$$@",
"+@@@@@@@@@@@@@@@@@@@@",
"                     ",
"                     "};
