/* XPM */
static char * statusbar_xpm[] = {
"21 21 65 1",
" 	c None",
".	c #F7F7F7",
"+	c #DBDBDB",
"@	c #D6D6D6",
"#	c #8D8D8D",
"$	c #FDFDFD",
"%	c #DADADA",
"&	c #D4D4D4",
"*	c #737373",
"=	c #FEFEFE",
"-	c #808080",
";	c #7A7A7A",
">	c #FFFFFF",
",	c #FAFAFA",
"'	c #F2F2F2",
")	c #F9F9F9",
"!	c #F5F5F5",
"~	c #D5D5D5",
"{	c #DEDEDE",
"]	c #D8D8D8",
"^	c #D9D9D9",
"/	c #D2D2D2",
"(	c #DCDCDC",
"_	c #C9C9C9",
":	c #D1D1D1",
"<	c #D0D0D0",
"[	c #D7D7D7",
"}	c #CFCFCF",
"|	c #E0E0E0",
"1	c #888888",
"2	c #727272",
"3	c #7E7E7E",
"4	c #838383",
"5	c #797979",
"6	c #6D6D6D",
"7	c #777777",
"8	c #8A8A8A",
"9	c #787878",
"0	c #CECECE",
"a	c #E2E2E2",
"b	c #E1E1E1",
"c	c #DDDDDD",
"d	c #E4E4E4",
"e	c #E3E3E3",
"f	c #E5E5E5",
"g	c #818181",
"h	c #8B8B8B",
"i	c #C6C6C6",
"j	c #EEEEEE",
"k	c #E6E6E6",
"l	c #DFDFDF",
"m	c #F0F0F0",
"n	c #FBFBFB",
"o	c #F1F1F1",
"p	c #E9E9E9",
"q	c #CDCDCD",
"r	c #B9B9B9",
"s	c #CCCCCC",
"t	c #080808",
"u	c #010101",
"v	c #000000",
"w	c #020202",
"x	c #070707",
"y	c #060606",
"z	c #0A0A0A",
"                     ",
"                     ",
"                     ",
"   .+@#              ",
"   $%&*              ",
"   =@@-              ",
"   =@@;              ",
"   =@@>>,'=>=)!>>>   ",
"   =@@~&{%]^/%(~_]   ",
"   =@@:<+[&~}[^^|@   ",
"   =@@-1;23435-678   ",
"   =@@90ab|:+cdef|   ",
"   =@@g|([d%f%+|]e   ",
"   >}]hije~{k{l^f~   ",
"   ,&/m=>=n>=.>>$>   ",
"   ob+p%:~%][%q+@r   ",
"   >(s&q0@[:~l~<l@   ",
"   tuvvwxywvuwyvzt   ",
"                     ",
"                     ",
"                     "};
