/* XPM */
static char * static_text_xpm[] = {
"21 21 12 1",
" 	c None",
".	c #040603",
"+	c #010002",
"@	c #040005",
"#	c #0A050C",
"$	c #060005",
"%	c #000000",
"&	c #020202",
"*	c #0E0E0E",
"=	c #030303",
"-	c #010101",
";	c #050505",
"                     ",
"                     ",
"                     ",
"          .          ",
"         .+.         ",
"         .@#         ",
"        $.@..        ",
"        .....        ",
"        .%%...       ",
"       %. &...       ",
"       .* &%%.=      ",
"      %.  .....      ",
"      .........-     ",
"     ..=........     ",
"     ..     ...%.    ",
"    ...     .....    ",
"   %..%     %.....   ",
"   ;=.%%   .......   ",
"                     ",
"                     ",
"                     "};
