/* XPM */
static char * static_bitmap_xpm[] = {
"21 21 8 1",
" 	c None",
".	c #001815",
"+	c #F20000",
"@	c #FBE800",
"#	c #110C00",
"$	c #110095",
"%	c #060400",
"&	c #060D00",
"                     ",
"                     ",
"  ..........         ",
"  .++++++++.         ",
"  .++++++++.....     ",
"  .+++++++.@@@@@.    ",
"  .++++++.@@@@@@@.   ",
"  .+++++.@@@@@@@@@.  ",
"  .+++++.@@@@@@@@@.  ",
"  .+++++.@@@@@@@@@.  ",
"  .+++++.@@@@@@@@@.  ",
"  ........@@@@@@@#   ",
"    .$$$$$%@@@@@&    ",
"    .$$$$$$.....     ",
"    .$$$$$$$$$.      ",
"    .$$$$$$$$$.      ",
"    .$$$$$$$$$.      ",
"    ...........      ",
"                     ",
"                     ",
"                     "};
