/* XPM */
static char * static_line_xpm[] = {
"21 21 21 1",
" 	c None",
".	c #D5D5D5",
"+	c #BFBFBF",
"@	c #939393",
"#	c #787878",
"$	c #747474",
"%	c #7A7A7A",
"&	c #777777",
"*	c #7C7C7C",
"=	c #757575",
"-	c #818181",
";	c #737373",
">	c #919191",
",	c #CACACA",
"'	c #E8E8E8",
")	c #F5F5F5",
"!	c #FEFEFE",
"~	c #FFFFFF",
"{	c #FDFDFD",
"]	c #FAFAFA",
"^	c #F3F3F3",
"                     ",
"                     ",
"                     ",
"                     ",
"                     ",
"                     ",
"                     ",
"                     ",
"                     ",
".....................",
"+@#$%%&********=-*;>,",
"')!~~!{~~~~~~~~{!!]^'",
".....................",
"                     ",
"                     ",
"                     ",
"                     ",
"                     ",
"                     ",
"                     ",
"                     "};
