/* XPM */
static char * toolbar_xpm[] = {
"21 21 6 1",
" 	c None",
".	c #FFFFFF",
"+	c #000000",
"@	c #DEDEDE",
"#	c #7B7B7B",
"$	c #D6D6D6",
"                     ",
"                     ",
"                     ",
"                     ",
" ..................+ ",
" .@@@@#$$$$$$$$$$$#+ ",
" ..@@@#$$$$$$$$$$$#+ ",
" .@#.@#$$$$$$$$$$$#+ ",
" .@@@##$$$$$$$$$$$#+ ",
" ..@@@#$$$$$$$$$$$#+ ",
" .@#.@#$$$$$$$$$$$#+ ",
" .@@@##$$$$$$$$$$$#+ ",
" ..@@@#$$$$$$$$$$$#+ ",
" .@#.@#$$$$$$$$$$$#+ ",
" .@@@##$$$$$$$$$$$#+ ",
" .#################+ ",
" +++++++++++++++++++ ",
"                     ",
"                     ",
"                     ",
"                     "};
